<?xml version="1.0" encoding="utf-8"?>
<!-- Generator: Adobe Illustrator 26.4.1, SVG Export Plug-In . SVG Version: 6.00 Build 0)  -->
<svg version="1.1" id="FQT-Icon" xmlns="http://www.w3.org/2000/svg" xmlns:xlink="http://www.w3.org/1999/xlink" x="0px" y="0px"
	 viewBox="0 0 1080 1080" style="enable-background:new 0 0 1080 1080;" xml:space="preserve">
<style type="text/css">
	.st0{fill:#9BB5F4;}
</style>
<g id="Icon">
	<path class="st0" d="M815.8,216.4c-36.9-23.4-103-52.1-127.8-28.8c-1.5,1.4-2.6,2.8-3.3,3.8c-9.9,13.9-20,27.8-29.9,41.7
		c-2.5,3.2-5.9,6.8-11,10.4c-11.5,8-23.5,8.9-29,8.9c-46.9-0.3-93.7-0.4-140.6-0.7c-5.5-0.4-18.4-1.9-30.9-11.1
		c-7.9-5.8-12.7-12.6-15.2-17.1c-6.8-11.4-13.6-22.7-20.3-34.2c-0.8-1.3-2.1-2.9-3.6-4.5c-26.8-27.4-107,0.2-157,36.9
		c-42.1,31-63.4,68.7-71.8,84.3c-50,95.1-179.3,405.7-54.3,531.1c36.5,36.7,90.7,53.6,105.3,57.9c30.6,8.8,69.8,20.1,102.8-0.4
		c19.7-12.3,42.2-41.1,35.4-61.9c-1.3-3.5-2.9-5.8-4.1-7.4c-15.8-21.3-42.6-43.7-61.5-58.1l0,0c0.1,0,0.2-0.2,0.2-0.2
		c0-0.1,3.9-3.3,12.3-1.4c19.6,4.3,165,55.7,245.4,54.4c71.6-1.2,142.9-16.7,211.6-46.9c4-1.8,8.8-1.1,12.2,1.8c0.1,0,0.1,0,0.1,0.1
		c1.2,1.3-20.8,21.3-44.5,49.5c-3.5,4-4,4.8-4.5,5.8c-8.9,17.9,9.8,49.9,30.9,64.3c32,21.8,73.2,8.3,101.8-0.8
		c44.4-14.3,77.6-39.6,94-56.2c123.2-124.2,4.4-454-77.5-562C876.8,269.3,854.3,240.7,815.8,216.4z M387.4,672.1
		c-46-0.7-82.9-44.3-82.1-96.5c0.8-52.2,38.4-94.6,85.1-93.9c46.8,0.7,83.7,44.2,82.1,96.6C471.8,630.5,434.1,672.8,387.4,672.1z
		 M696.4,677c-46-0.7-82.9-44.3-82.1-96.5c0.8-52.2,38.4-94.6,85.1-93.9c46.7,0.7,83.7,44.2,82.1,96.6
		C780.7,635.4,743,677.7,696.4,677z"/>
</g>
</svg>
