<?xml version="1.0" encoding="utf-8"?>
<!-- Generator: Adobe Illustrator 26.4.1, SVG Export Plug-In . SVG Version: 6.00 Build 0)  -->
<svg version="1.1" id="FQT-Logo" xmlns="http://www.w3.org/2000/svg" xmlns:xlink="http://www.w3.org/1999/xlink" x="0px" y="0px"
	 viewBox="0 0 1080 1080" style="enable-background:new 0 0 1080 1080;" xml:space="preserve">
<style type="text/css">
	.st0{fill:#FFE16B;}
</style>
<g id="Logo">
	<g>
		<path class="st0" d="M189.7,693.6c234.8-8.5,469.6-17,704.5-25.5c17.4-0.7,32.6-12.1,38-28.7c84.2-257.1,75.1-339.1,42.8-358.5
			C927.1,252.4,843.9,371,747.7,344C629,310.7,627.1,92.6,554.1,89.5c-78.6-3.1-101.6,248.8-230.6,273.1
			c-98.1,18.2-173.2-110.6-219-86.7c-32.2,16.9-39.8,105.7,44,388C153.7,682,170.8,694.3,189.7,693.6z"/>
		<path class="st0" d="M163.9,909c-0.1-2,0-3.6,0.1-5c0.1-1.3,1.2-2.3,2.6-2.6c5-0.8,9-1.2,12.1-1.3c0.7,0,1.6,0,3.2,0
			c0,0,0,0,0.1,0c1.9,0.1,3.4-1.6,3.1-3.4c-1.9-16.9-3-31.6-3.5-44.4c-0.4-11.9,0-35.3,1.2-70.4c0.1-1.9-1.6-3.4-3.5-3.1
			c-0.3,0-0.5,0.1-0.7,0.1c-3,0.1-5.8-0.7-8.8-2.4c-6.1-3.9-9.4-13.1-10-27.4c-0.3-6.5,0.5-11.3,2.3-14.4c0.3-0.5,0.7-0.9,1.3-1.2
			c13.1-6.5,35.3-10.3,66.8-11.3c20.1-0.7,41.5-0.4,64.2,1.1c21.3,1.3,36.3,3.2,44.9,5.5c0.9,0.3,1.8,1.1,2.2,2
			c1.9,5.9,3,14.3,3.5,24.8c0.3,8.2-1.3,20-5.1,34.9c-0.3,1.1-1.1,1.9-2.2,2.2c-4.2,1.2-8.2,1.8-12.3,1.9
			c-11.2,0.4-21.7-2.3-31.7-8.1c-0.9-0.5-1.6-1.6-1.5-2.8l0.4-6.3c0.1-1.3-0.7-2.6-1.9-3c-4.6-1.9-11.9-2.6-21.9-2.2
			c-12.7,0.4-19.3,1.6-20.1,3.5c-2.4,9.6-4.5,24.3-6.1,44c-0.1,1.9,1.3,3.5,3.2,3.4c3.4-0.1,5.9-0.4,7.8-0.5
			c1.6-0.1,2.8-1.6,2.7-3.2c-0.1-1.6-0.3-4.2-0.4-7.3c-0.1-2.4,0.8-5.5,2.7-9.3c0.4-0.7,1.1-1.3,1.9-1.6c0.9-0.3,2.3-0.4,4-0.5
			c4.5-0.1,11.1,0.4,19.7,1.9c8,1.3,13.1,2.6,15.6,3.6c0.7,0.3,1.1,0.7,1.3,1.2c1.3,2.3,2.2,8.1,2.4,17.3c0.8,22.8-1.3,37-6.6,42.5
			c-0.1,0.1-0.3,0.3-0.4,0.4c-1.8,1.2-8,2-18.5,2.4c-8.6,0.4-14.2,0.1-16.5-0.8c-0.5-0.1-0.9-0.5-1.2-0.9c-2-2.7-3.2-6.5-3.8-11.3
			c-0.1-1.6-1.6-2.8-3.2-2.7l-9,0.7c-1.6,0.1-3,1.5-2.8,3.2c0.4,8.9,1.3,21.6,2.7,38.2c0.1,1.8,1.8,3,3.5,2.7
			c1.5-0.1,3.4-0.4,5.5-0.4c5.4-0.1,8.4,0.1,9,0.8c2.2,2.4,3.5,9.2,3.9,20.2c0.3,6.2,0.3,10.4,0.1,12.4c-0.1,0.7-0.4,1.3-0.9,1.9
			c-3,3.2-9.3,5.9-19,8.2c-10.4,2.4-21.6,3.9-33.7,4.5c-20.8,0.7-35.2-1.6-43.6-7.3c-0.4-0.1-0.7-0.5-0.8-0.8
			C166.1,934.8,164.5,924.9,163.9,909z"/>
		<path class="st0" d="M414.3,851c-0.5-15.4,2-31.2,7.7-47.1c5.7-15.9,13.5-30.5,23.6-43.7c10.1-13.1,22.8-24,38.2-32.5
			c15.4-8.5,31.7-13.2,49.2-13.9c15-0.5,28.2,1.8,39.5,6.9c11.3,5.1,20.4,12.5,27.1,22.3c6.7,9.6,11.9,20.4,15.2,32.2
			c3.4,11.9,5.4,24.7,5.9,38.7c1.2,34.8-7.3,63.1-25.5,84.6c-0.7,0.8-0.9,1.9-0.7,3c3.1,9.3,5.5,17,7.3,22.7
			c0.7,1.9,2.8,2.7,4.5,1.6c3.1-1.9,6.5-3,10.1-3c2.4-0.1,4.5,0.3,6.2,0.9c3,1.3,5.5,4.7,7.8,10.1c2.3,5.4,3.5,10.9,3.6,16.7
			c0.1,5.1-0.4,9-1.9,11.9c-0.1,0.1-0.3,0.4-0.4,0.7c-5,5.8-15.1,11.9-30.2,17.8c-15.4,6.1-28.7,9.3-39.9,9.8
			c-4.3,0.1-7.7-0.3-10-1.2c-3.2-1.2-6.3-4.7-9.7-10.9c-3.4-6.2-5.1-11.9-5.3-17.3c-0.1-1.6,0-3,0.1-3.6c0.7-3,3-5.4,6.5-7.3
			c2.2-1.2,4.2-2,6.2-2.6c1.9-0.5,3-2.7,1.9-4.5c-0.9-1.6-1.9-3.5-3-5.5c-1.2-2.4-2.3-4.3-3-5.8c-0.7-1.2-2.2-1.9-3.5-1.5
			c-9.3,2.4-19.6,3.9-30.6,4.2c-31.3,1.2-55-6.3-71.4-22.3C423.9,896.3,415.2,875.9,414.3,851z M475.9,838.6
			c0.4,10.9,4,20.1,10.9,27.6c6.9,7.6,15.6,11.1,26.4,10.7c14-0.5,26.8-7.3,38.3-20.2c11.6-12.9,17-27.4,16.5-43.2
			c-0.4-11.7-4.2-21.4-11.3-29.1c-7-7.7-16.3-11.3-27.6-10.9c-15.1,0.5-27.8,7.8-38.3,21.9C480.4,809.3,475.4,823.7,475.9,838.6z"/>
		<path class="st0" d="M697.9,758.1c-0.7-20,0-34.5,2.2-43.7c0.3-1.2,1.3-2.2,2.7-2.3c4.3-0.4,12.1-1.1,23.5-2.2
			c13.6-1.2,27-2.3,40.2-3.2c13.2-0.9,26.6-1.6,39.9-2c13.4-0.4,26.8-0.8,40.3-0.8c13.5-0.1,27.5-0.1,41.9,0
			c12.1,0.1,20.2,0.3,24.3,0.4c1.2,0.1,2.4,0.9,2.7,2.2c2.8,8.9,4.6,23.3,5.3,43.4c0.3,8.2,0,14.8-0.9,20c-0.1,1.2-1.2,2.2-2.3,2.4
			c-9.3,2.2-17,3.4-22.9,3.5c-8.5,0.3-15.8-0.9-21.9-3.8c-0.8-0.4-1.3-1.1-1.6-1.9l-5.1-15.9c-0.3-0.9-1.1-1.6-2-2
			c-3.6-1.2-11.1-1.6-22.3-1.6c-1.8,0-3.2,1.5-3.1,3.4c2,24.5,3.4,47.1,4.2,67c0.7,20.2,0.4,36-1.2,47.7c-0.1,1.6,1.1,3.2,2.7,3.5
			c1.1,0.1,2.4,0.3,3.9,0.4c4.5,0.5,7.8,1.2,9.8,1.9c0.9,0.4,1.5,0.9,1.9,1.9c0.9,2.4,1.3,7.6,1.6,15.4c0.4,10.8,0,17-1.2,18.5
			c-3.6,5.8-18.6,9-44.8,10.1c-26.7,0.9-42.2-1.3-46.3-6.7c-1.3-1.3-2.2-7.6-2.4-18.3c-0.3-7.8-0.1-12.9,0.7-15.4
			c0.3-0.9,0.9-1.6,1.6-2c2-0.9,5.3-1.8,9.7-2.7c1.5-0.4,2.8-0.5,3.9-0.8c1.6-0.3,2.8-1.9,2.4-3.6c-2.3-11.6-3.8-27.4-4.6-47.6
			c-0.7-20-0.9-42.5-0.7-67.2c0-1.8-1.5-3.2-3.2-3.1c-11.2,0.8-18.6,1.9-22.1,3.2c-0.9,0.4-1.6,1.2-1.9,2.2l-3.9,16.2
			c-0.1,0.8-0.7,1.5-1.3,1.9c-5.8,3.2-13.1,5-21.6,5.4c-5.9,0.1-13.6-0.4-23.2-1.9c-1.2-0.1-2.2-1.1-2.4-2.2
			C699,772.8,698.2,766.2,697.9,758.1z"/>
		<path class="st0" d="M706.4,841.6l-20.5,22.9c-3.2,3.6-8.8,3.9-12.4,0.7l-22.9-20.5c-3.6-3.2-3.9-8.8-0.7-12.4l20.5-22.9
			c3.2-3.6,8.8-3.9,12.4-0.7l22.9,20.5C709.4,832.5,709.7,838,706.4,841.6z"/>
		<path class="st0" d="M385.1,858.4l-21.9,21.9c-3.5,3.5-8.9,3.5-12.4,0L329,858.4c-3.5-3.5-3.5-8.9,0-12.4l21.9-21.9
			c3.5-3.5,8.9-3.5,12.4,0l21.9,21.9C388.7,849.5,388.7,855,385.1,858.4z"/>
	</g>
</g>
</svg>
