<?xml version="1.0" encoding="utf-8"?>
<!-- Generator: Adobe Illustrator 26.4.1, SVG Export Plug-In . SVG Version: 6.00 Build 0)  -->
<svg version="1.1" id="FQT-Icon" xmlns="http://www.w3.org/2000/svg" xmlns:xlink="http://www.w3.org/1999/xlink" x="0px" y="0px"
	 viewBox="0 0 1080 1080" style="enable-background:new 0 0 1080 1080;" xml:space="preserve">
<style type="text/css">
	.st0{fill:#FFBBFA;}
</style>
<g id="Icon_00000153668341413661947770000000174292457290050749_">
	<path class="st0" d="M697.7,992.4c-10.4,0-21.7-0.4-33.5-1.3c-46.2-3.4-61.3-4.8-176.1-18.5c-114.8-13.7-129.9-15.9-175.4-23.6
		c-41.7-7-73.3-17.2-103-32.9c-29.2-15.6-51.4-34.2-71.7-59.9c-20.3-25.9-33.1-51.7-41.4-83.8c-8.4-32.6-10.7-65.8-7.6-107.9
		c3.4-46.3,4.8-61.6,18.4-176.1c13.7-113.9,16-129.2,23.7-175.4c6.8-41.8,17.1-73.4,32.9-103.1c15.6-29.3,34.2-51.4,59.9-71.8
		s51.7-33.1,83.8-41.4c23.7-6.1,47.3-9,74.5-9c10.4,0,21.7,0.4,33.4,1.3c46.2,3.4,61.3,4.7,176,18.4
		c114.7,13.7,129.8,15.9,175.4,23.6c41.7,6.9,73.4,17.1,103.1,32.9c29.2,15.6,51.3,34.1,71.8,59.9c20.3,25.8,33.1,51.7,41.4,83.8
		c8.4,32.6,10.6,65.9,7.6,107.9c-3.5,46.7-4.8,62.1-18.5,176.1C959,705.6,956.7,720.9,949,767c-6.9,41.7-17.2,73.3-32.9,103.1
		c-15.7,29.2-34.3,51.4-59.9,71.8c-25.9,20.4-51.7,33.2-83.8,41.4C748.7,989.4,724.9,992.4,697.7,992.4L697.7,992.4z M391.3,199.2
		c-23.9,0-38.9,3.1-49.2,5.8c-18.6,4.9-32.3,11.4-47.2,23.3c-14.9,11.7-24.8,23.5-33.8,40.4c-6.9,13-15.8,32.9-22.1,70.9
		c-6.8,41.7-8.9,54.3-21.7,161.8c-12.8,107.7-14,120.3-17.1,162.5c-2.9,38.3,1.1,59.7,4.8,74c4.9,18.5,11.4,32.2,23.3,47.2
		c11.7,14.8,23.4,24.8,40.4,33.8c13,6.9,32.9,15.7,70.9,22c42.2,7,54.9,9,161.9,21.7c107.1,12.8,119.8,13.9,162.5,17.1
		c8.7,0.7,17.2,1,24.9,1c23.9,0,38.8-3.1,49.1-5.8c18.5-4.8,32.2-11.4,47.2-23.3c14.8-11.7,24.8-23.5,33.8-40.3
		c6.9-13,15.7-32.9,22-70.9c7-42.2,9-54.9,21.7-161.8S876.8,459,880,416.3c2.9-38.3-1.1-59.7-4.8-74c-4.8-18.6-11.5-32.3-23.3-47.2
		c-11.6-14.9-23.5-24.8-40.4-33.8c-13.1-6.9-32.9-15.8-70.9-22.1c-41.7-6.8-54.3-8.9-161.9-21.7c-4.7-0.6-9.2-1.1-13.4-1.7
		c-8.1-1-15.7-2-22.6-2.8l-7.1-0.9v-0.1c-68.7-8.1-83.2-9.4-119.3-12C407.3,199.6,398.9,199.2,391.3,199.2z"/>
	<path class="st0" d="M845.3,354.6c-3.5,29.2-30,50-59.1,46.6c-29.2-3.5-50.1-30-46.6-59.1c3.5-29.2,30-50,59.1-46.6l0,0
		C827.9,298.9,848.8,325.6,845.3,354.6z"/>
	<path class="st0" d="M540.3,774.9c-9.4,0-18.8-0.6-28.1-1.8c-31.5-3.8-61.3-13.6-88.6-29.2c-26.5-15-49.4-34.8-68.2-58.9
		c-18.9-23.9-32.8-50.8-41.2-80.1c-8.7-30.2-11.3-61.6-7.5-93c3.5-29.2,12.2-57.1,26-82.7c13.3-24.8,30.7-47,51.8-65.6
		c42.9-38,98.1-58.9,155.3-58.9c9.4,0,18.8,0.6,28.1,1.8c31.5,3.8,61.3,13.6,88.6,29.2c26.5,15.1,49.4,34.8,68.1,58.9
		c18.8,23.9,32.8,50.8,41.2,80.2c8.7,30.2,11.2,61.6,7.5,93c-3.5,29.2-12.2,57.1-26,82.7c-13.3,24.8-30.7,46.8-51.8,65.6
		C652.5,754.1,597.4,774.9,540.3,774.9L540.3,774.9z M539.9,407.3c-67.1,0-123.7,50.3-131.7,116.9c-4.1,35.1,5.5,69.9,27.4,97.7
		c22,27.8,53.4,45.5,88.5,49.7c5.2,0.7,10.6,1,15.8,1c67,0,123.7-50.3,131.7-116.9c4.1-35.1-5.5-69.9-27.5-97.7
		c-21.9-27.8-53.4-45.5-88.5-49.7C550.5,407.7,545.1,407.3,539.9,407.3z"/>
</g>
</svg>
