<?xml version="1.0" encoding="utf-8"?>
<!-- Generator: Adobe Illustrator 26.4.1, SVG Export Plug-In . SVG Version: 6.00 Build 0)  -->
<svg version="1.1" id="FQT-Icon" xmlns="http://www.w3.org/2000/svg" xmlns:xlink="http://www.w3.org/1999/xlink" x="0px" y="0px"
	 viewBox="0 0 1080 1080" style="enable-background:new 0 0 1080 1080;" xml:space="preserve">
<style type="text/css">
	.st0{fill:#D9EEFF;}
</style>
<g id="Icon">
	<path class="st0" d="M1012.7,530.4c5.1,11.1-18.4,23.8-43.4,68.5c-15.7,28.2-23.4,53.7-27.4,70.5
		c-11.7,50.7-45.1,159.5-145.4,242.5c-168.3,139-404.2,105.8-543.7,32.1C131.5,879.9,49.5,767.2,69.7,732.6
		c10.3-17.6,57.7-33.1,124.5-54.9l0,0c57.8-15.1,75.8-23.3,92.9-11.5c9.5,6.6,14.4,16.3,16.9,23.9c4.7,13.9,14.9,36.9,37.5,54.1
		c48.5,36.8,133.3,31.3,157-9.7c4.1-7,10.8-22.9,3.6-50.4c-9.2-0.3-103.9-3.6-132.1-11.4c-4.9-1.3-11.1-3.8-14.2-9.3
		c-5-8.9,0.4-20.6,2.8-24.8c18.8-39.5,43.1-104.8,43.7-187.3c1-156.9-84.4-266.1-113.1-299.9c-2.1-2.7-8.1-11.2-5-16.3
		c2.6-4.2,10.3-4,13.7-3.9c36,1,107.1,9,118.5,10.3c2.6-37.1,17.2-66.5,34-69c19.1-2.9,48.7,28.2,57.6,81.5
		c4.7,2.6,11.3,6.4,19,11.2c39.5,24.4,237.5,146.6,228.5,296.6c-6.6,110.9-122.9,184.3-149.1,200.1c-0.3,11.4,1.4,27.1,12,39.3
		c24,28.1,78.1,20.2,110.7,2.3c20.8-11.4,33.2-27.2,40-37.2c4.8-7.7,11.4-19.5,17.2-34.7c7.3-19.3,7.1-27.5,11.3-37
		c9.4-21.1,33.8-29.6,61.3-39.5C904.4,538.5,1003,509.8,1012.7,530.4z"/>
	<path class="st0" d="M110.5,622.5c-3.4-6.4-4.1-17.6,9.8-39c19.7-32.3,39.5-68,58.6-107.2c31.3-64.5,54.3-125.5,71.3-180
		c2.2-6,7.6-19.3,17.7-21.2c13.2-2.5,26.6,15.5,32.6,23.8c23.6,32.8,113.9,207.1,29.5,284.8c-14.3,13.1-30,19-61.3,30.6
		C210,636,124.8,648.9,110.5,622.5z"/>
</g>
</svg>
