<?xml version="1.0" encoding="utf-8"?>
<!-- Generator: Adobe Illustrator 26.4.1, SVG Export Plug-In . SVG Version: 6.00 Build 0)  -->
<svg version="1.1" id="FQT-Icon" xmlns="http://www.w3.org/2000/svg" xmlns:xlink="http://www.w3.org/1999/xlink" x="0px" y="0px"
	 viewBox="0 0 1080 540" style="enable-background:new 0 0 1080 540;" xml:space="preserve">
<style type="text/css">
	.st0{fill:#CBD5FF;}
</style>
<g id="Sword-Dark">
	<path class="st0" d="M420.6,171.9c-11-1.7-15.6-7.9-15.6-7.9c-2.2-3-3-6.3-3.3-9.4c-1.2-12.9,1.9-62.7,36.1-81.3
		c5.5-3,8.2-3.2,8.9-5.8c3.3-12.1-42.1-45.3-90.4-47.4c-42.5-1.8-90.6,20.5-91.7,43.1c-0.4,6.7,3.7,11.1,6.9,16.3
		c22.6,37,27.6,99.5,7.7,117.3c-20.2,18.1-75-0.9-99.9-9.5c-2-0.7-4.9-1.8-8.9-1.8c-26-0.1-57,43-56.5,85.8
		c0.4,44.2,34.1,86.9,61.9,86.3c4.6-0.1,7.2-1.3,12.1-3.1c8.6-3.1,71.7-25.6,94.3-1.8c18.6,19.6,12.5,73.7-5.1,104.3
		c-1.9,3.4-4.3,6.5-4.5,11.4c-0.8,23.9,50.9,54.5,98.4,51.1c45.2-3.1,86.9-36.9,83.2-48.9c-1-3.1-4.3-2.8-11.3-6.3
		c-33.7-16.9-36.3-63-37-75.3c-0.2-2.8-0.2-7,2.3-10.7c4.7-7,15.4-7.9,24.1-7.7c43,1.1,325.1,27.8,371.4,31.6
		c11.5,1,25.4,1.8,42.7-2.5c29.7-7.5,55.8-38.7,106.8-101c5-6.1,14-17.4,13.1-31.7c-0.8-12.1-8.4-20.9-12.6-25.5
		c-76.9-85.5-91-93.5-108.7-97.9c-18.8-4.7-33.9-3.3-46.5-2l0,0C768.9,145.2,464.8,178.7,420.6,171.9z M148.6,277.2
		c-2.4-15.8,3.4-31.8,13-35.7c9.6-4.1,19.4,5.5,21.8,21.2c2.5,15.8-3.3,31.9-13,35.7C160.8,302.7,151,293,148.6,277.2z"/>
</g>
</svg>
