<?xml version="1.0" encoding="utf-8"?>
<!-- Generator: Adobe Illustrator 26.4.1, SVG Export Plug-In . SVG Version: 6.00 Build 0)  -->
<svg version="1.1" id="FQT-Icon" xmlns="http://www.w3.org/2000/svg" xmlns:xlink="http://www.w3.org/1999/xlink" x="0px" y="0px"
	 viewBox="0 0 1080 1080" style="enable-background:new 0 0 1080 1080;" xml:space="preserve">
<style type="text/css">
	.st0{fill:#8CD9F4;}
</style>
<g id="Icon_00000009574629816344136460000010732578626764283839_">
	<path class="st0" d="M913.2,335.8c0.6,6.1,1.6,15,2.1,25.7c9.4,172.3-81.1,364.8-222.4,470C442.8,1018,85.3,892,84.8,870.3
		c-0.2-7,37.4-7.6,124-39.3c47.3-17.4,86.5-35.5,116.2-50.8c-65.8-10.5-102.6-38-120.9-54.9c-16.2-14.9-46.3-48.2-38.6-59.8
		c2.7-4.2,9.4-4,17.9-4.1c17.4-0.2,41.4-1.1,72-4.8c-31.3-8.8-68.3-25.2-103.3-54c-23.4-19.4-37.3-38.4-45.4-51.6
		c-18.2-29.5-34.5-72.3-23.5-80.5c4.7-3.3,11.5,1,25.6,5.9c25.3,9.1,48.5,11.2,66.5,11c-21.9-14.6-70.3-51.5-91.1-116.1
		c-19.4-60.3-13.1-139.3,13-147c14-4.2,27.5,14.1,51.4,36.8c125.3,118.4,305.5,132.6,346.5,135.8c10.7,0.8,19.3,1.3,23.9,1.4
		c-1.3-4.9-28.1-122,49.2-196.6c69.3-67,192.8-70.7,282.8,3.2c15.7-3.4,38.7-9.8,64.4-22.8c36.6-18.4,54.1-37.9,59.6-33.5
		c6.6,5.6-11.4,40.3-30.1,65.3c-17.9,24.2-37.3,40.4-51.1,50.5c13.8-2,34.3-5.9,57.8-14.9c33.8-13,51.4-27.4,55-23.5
		c5.8,6.5-34.4,50.9-41.8,59.1C944.4,307.7,926.1,324.7,913.2,335.8z"/>
</g>
</svg>
